<svg with="158" height="158" viewBox="0 0 158 158" fill="none" xmlns="http://www.w3.org/2000/svg">
<path d="M79 0L85.2522 9.61218L93.1202 1.27084L97.5556 11.8449L106.787 5.04253L109.263 16.2386L119.56 11.1938L119.997 22.6521L131.03 19.527L129.414 30.8792L140.827 29.7743L137.21 40.6556L148.637 41.6063L143.135 51.6669L154.209 54.6427L147 63.5592L157.364 68.4645L148.678 75.9504L158 82.6276L148.117 88.4422L156.097 96.6766L145.335 100.633L151.716 110.16L140.42 112.131L144.998 122.644L133.531 122.567L136.158 133.729L124.89 131.605L125.482 143.056L114.774 138.955L113.311 150.328L103.508 144.38L100.038 155.31L91.454 147.707L86.0886 157.841L79 148.828L71.9114 157.841L66.546 147.707L57.9619 155.31L54.4922 144.38L44.6886 150.328L43.2262 138.955L32.5181 143.056L33.1099 131.605L21.8416 133.729L24.4686 122.567L13.0022 122.644L17.58 112.131L6.28405 110.16L12.6655 100.633L1.90303 96.6766L9.88297 88.4422L-4.58225e-05 82.6276L9.32196 75.9504L0.636017 68.4645L11.0005 63.5592L3.79077 54.6427L14.8645 51.6669L9.3628 41.6063L20.79 40.6556L17.173 29.7743L28.5863 30.8792L26.9704 19.527L38.003 22.6521L38.4401 11.1938L48.7374 16.2386L51.2134 5.04253L60.4444 11.8449L64.8798 1.27084L72.7478 9.61218L79 0Z"/>
</svg>