<svg width="152" height="60" viewBox="0 0 152 60" fill="none" xmlns="http://www.w3.org/2000/svg">
<path d="M15.979 11.3483C10.1873 11.0503 4.39567 36.5635 -1.396 36.0006V62.2649H154.979V25.7586L152.083 28.2856C149.187 30.8125 143.396 35.8664 137.604 30.5591C131.812 25.2518 126.021 9.58322 120.229 7.0301C114.437 4.47697 108.646 15.0393 102.854 21.2823C97.0623 27.5253 91.2707 29.4491 85.479 27.417C79.6873 25.3849 73.8957 19.397 68.104 11.9606C62.3123 4.52428 56.5207 -4.36046 50.729 4.04883C44.9373 12.4581 39.1457 38.1615 33.354 37.9585C27.5623 37.7555 21.7707 11.6462 15.979 11.3483Z" fill="url(#paint0_linear_70_736)" fill-opacity="0.3"/>
<path d="M-105.646 54.4426L-102.75 56.7282C-99.8543 59.0138 -94.0627 63.5849 -88.271 63.4364C-82.4793 63.2878 -76.6877 58.4195 -70.896 50.3196C-65.1043 42.2196 -59.3127 30.8881 -53.521 27.0748C-47.7293 23.2615 -41.9377 26.9664 -36.146 20.7336C-30.3543 14.5008 -24.5627 -1.66986 -18.771 3.56438C-12.9793 8.79861 -7.18766 35.4377 -1.396 36.0006M-1.396 36.0006C4.39567 36.5635 10.1873 11.0503 15.979 11.3483C21.7707 11.6462 27.5623 37.7555 33.354 37.9585C39.1457 38.1615 44.9373 12.4581 50.729 4.04883C56.5207 -4.36046 62.3123 4.52428 68.104 11.9606C73.8957 19.397 79.6873 25.3849 85.479 27.417C91.2707 29.4491 97.0623 27.5253 102.854 21.2823C108.646 15.0393 114.437 4.47697 120.229 7.0301C126.021 9.58322 131.812 25.2518 137.604 30.5591C143.396 35.8664 149.187 30.8125 152.083 28.2856L154.979 25.7586V62.2649H-1.396V36.0006Z" stroke="#0D9F7E"/>
<defs>
<linearGradient id="paint0_linear_70_736" x1="24.6665" y1="-24.9158" x2="24.6665" y2="54.3278" gradientUnits="userSpaceOnUse">
<stop stop-color="#0D9F7E"/>
<stop offset="1" stop-color="#0D9F7E" stop-opacity="0"/>
</linearGradient>
</defs>
</svg>
